<?xml version="1.0" encoding="UTF-8" standalone="no"?>
<!-- Created with Inkscape (http://www.inkscape.org/) -->

<svg
   xmlns:dc="http://purl.org/dc/elements/1.1/"
   xmlns:cc="http://creativecommons.org/ns#"
   xmlns:rdf="http://www.w3.org/1999/02/22-rdf-syntax-ns#"
   xmlns:svg="http://www.w3.org/2000/svg"
   xmlns="http://www.w3.org/2000/svg"
   xmlns:sodipodi="http://sodipodi.sourceforge.net/DTD/sodipodi-0.dtd"
   xmlns:inkscape="http://www.inkscape.org/namespaces/inkscape"
   inkscape:version="0.48.4 r9939"
   version="1.1"
   id="svg2"
   height="1052.3622047"
   width="744.09448819"
   sodipodi:docname="narrow_serpentine.svg">
  <sodipodi:namedview
     id="base"
     pagecolor="#ffffff"
     bordercolor="#666666"
     borderopacity="1.0"
     inkscape:pageopacity="0.0"
     inkscape:pageshadow="2"
     inkscape:zoom="0.7"
     inkscape:cx="175.83287"
     inkscape:cy="920.98386"
     inkscape:document-units="px"
     inkscape:current-layer="layer1"
     showgrid="false"
     inkscape:window-width="1484"
     inkscape:window-height="598"
     inkscape:window-x="197"
     inkscape:window-y="52"
     inkscape:window-maximized="0" />
  <defs
     id="defs4">
    <inkscape:path-effect
       bendpath-nodetypes="cssc"
       vertical="false"
       scale_y_rel="false"
       prop_scale="1"
       bendpath="M 35.096111,44.330046 C 72.223721,72.687014 154.19943,134.3546 225.04976,101.52152 295.90888,68.68435 377.26829,49.269326 457.1154,93.433936 531.84255,134.76663 640.86206,71.61254 660.20852,57.187189"
       is_visible="true"
       id="path-effect3231"
       effect="bend_path" />
    <inkscape:path-effect
       back_thickness="0.25"
       front_thickness="1"
       stroke_width_bottom="1"
       stroke_width_top="1"
       fat_output="false"
       bottom_smth_variation="0;1"
       top_smth_variation="0;1"
       scale_tb="2"
       scale_tf="2"
       scale_bb="2"
       scale_bf="2"
       top_tgt_variation="0;1"
       bottom_tgt_variation="0;1"
       top_edge_variation="0;1"
       bottom_edge_variation="0;1"
       bender="335.50946,49.416186 , 0,-0.65235613"
       do_bend="false"
       growth="0"
       dist_rdm="0;1"
       direction="298.54985,49.416186 , 0,-22.289971"
       is_visible="true"
       id="path-effect3048"
       effect="rough_hatches" />
  </defs>
  <metadata
     id="metadata7">
    <rdf:RDF>
      <cc:Work
         rdf:about="">
        <dc:format>image/svg+xml</dc:format>
        <dc:type
           rdf:resource="http://purl.org/dc/dcmitype/StillImage" />
        <dc:title />
      </cc:Work>
    </rdf:RDF>
  </metadata>
  <g
     inkscape:label="Layer 1"
     inkscape:groupmode="layer"
     id="layer1">
    <text
       xml:space="preserve"
       style="font-size:40px;font-style:italic;font-variant:normal;font-weight:bold;font-stretch:normal;line-height:125%;letter-spacing:0px;word-spacing:0px;fill:#000000;fill-opacity:1;stroke:none;font-family:Stencilia-Bold;-inkscape-font-specification:Stencilia-Bold Bold Italic"
       x="30.304577"
       y="29.077654"
       id="text2985"
       sodipodi:linespacing="125%"><tspan
         sodipodi:role="line"
         id="tspan2987"
         x="30.304577"
         y="29.077654" /></text>
    <path
       inkscape:original-d="m 537.35138,-9.4494703 c 0,0 -660.82669,-2.2289967 -660.82669,2.2289971 0,4.4579939 660.82669,0 660.82669,4.4579939 0,4.457995 -660.82669,0 -660.82669,4.457994 0,4.457995 660.82669,1e-6 660.82669,4.457995 0,4.4579943 -660.82669,0 -660.82669,4.4579943 0,4.457994 660.82669,0 660.82669,4.457994 0,4.457994 -660.82669,0 -660.82669,4.457994 0,4.457995 660.82669,0 660.82669,4.457995 0,4.457994 -660.82669,0 -660.82669,4.457994 0,4.457994 660.82669,0 660.82669,4.457994 0,4.457994 -660.82669,0 -660.82669,4.457994 0,4.457994 660.82669,0 660.82669,4.457994 0,4.457995 -660.82669,0 -660.82669,4.457995 0,4.457994 660.82669,0 660.82669,4.457994 0,4.457994 -660.82669,0 -660.82669,4.457994 0,4.457994 660.82669,0 660.82669,4.457994 0,4.457994 -660.82669,0 -660.82669,4.457994 0,4.457995 660.82669,0 660.82669,4.457995 0,4.457994 -660.82669,0 -660.82669,4.457994 0,4.457994 660.82669,2.228997 660.82669,2.228997"
       inkscape:path-effect="#path-effect3231"
       id="rect2989"
       d="m 634.89295,23.235391 c 0,0 -0.11444,0.08932 -0.3612,0.271093 -0.24676,0.181776 -0.62661,0.455688 -1.19592,0.840862 -1.13862,0.770348 -3.02879,1.949482 -6.36622,4.010136 -3.91313,2.364272 -9.10346,5.312113 -15.66423,8.689259 -5.79386,2.966476 -12.47356,6.179326 -19.96742,9.374406 -7.49386,3.195079 -15.80249,6.372037 -24.83483,9.209976 -7.76744,2.370384 -15.90233,4.557358 -24.2231,6.182424 -8.32077,1.625065 -16.82704,2.687054 -25.30426,2.698893 -7.44406,0.04779 -14.73331,-0.465291 -21.42463,-1.992277 -6.32635,-1.428389 -12.43163,-3.565292 -17.70669,-6.563177 C 456.01982,43.822538 431.4865,34.490072 405.31195,29.34427 381.66161,24.795344 357.49468,23.745872 333.96139,25.8584 c -23.57879,2.264706 -46.18963,7.113904 -67.44621,13.590381 -21.25659,6.476478 -41.15767,14.56516 -59.45329,23.256824 -4.91635,2.316716 -10.21893,3.89663 -15.49343,4.740262 -5.3959,0.90896 -11.22243,0.980009 -17.12557,0.535703 -6.6783,-0.417089 -13.4614,-1.829828 -20.18997,-3.778923 -6.72856,-1.949094 -13.40232,-4.433662 -19.88278,-7.093813 -1e-5,-4e-6 -2e-5,-8e-6 -3e-5,-1.2e-5 -7.8647,-3.317109 -15.23276,-7.068682 -22.06377,-10.864939 -6.831,-3.796258 -13.124649,-7.63752 -18.817324,-11.238046 -5.178216,-3.286374 -9.853393,-6.433757 -13.975208,-9.25184 -4.121816,-2.818082 -7.689107,-5.307882 -10.627651,-7.337131 -5.877088,-4.058497 -9.225593,-6.248912 -9.436791,-5.972392 -0.211198,0.27652 2.77072,2.943371 8.349565,7.426297 2.789422,2.241463 6.225143,4.930746 10.237989,7.940748 4.012846,3.010002 8.60171,6.341774 13.723435,9.811457 5.626433,3.797619 11.887315,7.830104 18.729255,11.815371 6.84193,3.985267 14.26474,7.923649 22.23787,11.428533 10e-6,4e-6 2e-5,8e-6 3e-5,1.2e-5 6.56698,2.820313 13.37917,5.455744 20.31053,7.542384 6.93136,2.08664 13.98168,3.623578 21.0014,4.147961 6.21958,0.533094 12.41993,0.502501 18.25081,-0.424587 5.70855,-0.867355 11.45312,-2.539312 16.81151,-5.025236 18.18001,-8.552603 37.89013,-16.522545 58.87859,-22.900501 20.98845,-6.377957 43.2542,-11.148854 66.41941,-13.352761 23.1068,-2.06793 46.80553,-1.050576 69.95881,3.398651 25.62247,5.022102 49.67353,14.159687 71.0826,26.049154 5.74952,3.246991 12.30653,5.546096 19.06221,7.060543 7.13094,1.612999 14.79287,2.161061 22.55103,2.106365 8.81812,-0.02447 17.60936,-1.107625 26.16913,-2.757877 8.55976,-1.650252 16.88772,-3.866423 24.81286,-6.265505 9.21983,-2.862818 17.69803,-6.055609 25.34918,-9.253498 7.65115,-3.197889 14.47591,-6.400545 20.40745,-9.339597 6.71888,-3.344677 12.08697,-6.254759 16.17932,-8.555831 3.45032,-1.986192 5.54223,-3.142738 6.87366,-3.864395 1.33143,-0.721656 1.93167,-0.9868 2.04414,-0.835961 0.11247,0.150838 -0.28528,0.694808 -1.45553,1.68861 -1.17026,0.993801 -3.14381,2.416995 -6.47623,4.633646 -3.95671,2.600234 -9.23606,5.788468 -15.89772,9.382755 -5.8803,3.1596 -12.68867,6.566869 -20.36036,9.954007 -7.6717,3.387137 -16.20739,6.75375 -25.5224,9.774562 -8.00447,2.539994 -16.45582,4.881351 -25.19212,6.637799 -8.73631,1.756449 -17.75729,2.926778 -26.8645,3.016978 -8.02454,0.109473 -16.01231,-0.430941 -23.53332,-2.09142 -7.1365,-1.563164 -14.09909,-3.98727 -20.27494,-7.443608 -21.0532,-11.650654 -44.67309,-20.611125 -69.80341,-25.525837 -22.71019,-4.362945 -45.99265,-5.358591 -68.72018,-3.328601 -22.7974,2.15158 -44.75542,6.863385 -65.49362,13.183818 -20.73819,6.320433 -40.25509,14.234452 -58.28867,22.740151 -5.75166,2.686319 -11.89777,4.501014 -18.01685,5.459163 -6.24217,1.013413 -12.81174,1.087923 -19.36371,0.561303 -7.37865,-0.52576 -14.73845,-2.067312 -21.93746,-4.159564 -7.19901,-2.092252 -14.23703,-4.734303 -20.99544,-7.560047 -1e-5,-4e-6 -2e-5,-9e-6 -3e-5,-1.3e-5 -8.21009,-3.502381 -15.84815,-7.41695 -22.89134,-11.356345 C 100.75913,50.224163 94.311002,46.259598 88.503929,42.553106 83.207611,39.163544 78.450501,35.938132 74.26988,33.059559 70.089258,30.180987 66.486212,27.648189 63.524168,25.587241 57.600079,21.465347 54.24873,19.253636 54.037532,19.530156 c -0.211198,0.276521 2.781944,2.953975 8.421269,7.481758 2.819662,2.263892 6.299128,4.984925 10.379292,8.042334 4.080164,3.05741 8.759999,6.452297 14.008289,10.008333 5.750228,3.885375 12.174446,8.02088 19.235008,12.126981 7.06056,4.1061 14.75737,8.18315 23.07517,11.846979 10e-6,4e-6 2e-5,9e-6 3e-5,1.3e-5 6.84448,2.96391 14.01632,5.734049 21.40689,7.94106 7.39057,2.207011 14.99972,3.849971 22.69286,4.461155 6.8434,0.596395 13.75459,0.54698 20.39102,-0.494019 6.51254,-0.990675 13.05633,-2.899398 19.20322,-5.747765 17.92081,-8.397935 37.2596,-16.221796 57.75441,-22.466555 20.49481,-6.244759 42.14453,-10.89535 64.57414,-12.994418 22.34826,-1.991867 45.21578,-1.019205 67.47947,3.269216 24.6344,4.820295 47.81293,13.633534 68.46715,25.098777 6.59699,3.702342 13.96445,6.300308 21.49206,7.972822 7.92135,1.77113 16.25503,2.381343 24.57804,2.306904 9.43116,-0.05541 18.73291,-1.193015 27.71484,-2.915277 8.98193,-1.722263 17.64376,-4.027989 25.83135,-6.527421 9.53221,-2.964717 18.27888,-6.259581 26.16029,-9.55523 7.88141,-3.295649 14.89828,-6.591734 20.98947,-9.615402 6.90312,-3.438487 12.46091,-6.458552 16.71228,-8.855319 3.53088,-2.025259 5.81977,-3.317058 7.30606,-4.147064 1.4863,-0.830006 2.19713,-1.174908 2.3096,-1.02407 0.11247,0.150838 -0.39587,0.774568 -1.72099,1.876718 -1.32512,1.102151 -3.49565,2.660597 -6.90863,4.916316 -4.11572,2.695929 -9.58477,5.994145 -16.43068,9.682242 -6.03995,3.244217 -13.04043,6.744915 -20.94238,10.229813 -7.90195,3.484898 -16.70612,6.953583 -26.3335,10.076294 -8.26692,2.640344 -17.05215,5.071256 -26.21062,6.899715 -9.15847,1.828459 -18.68996,3.053235 -28.4102,3.174378 -8.5894,0.129215 -17.24892,-0.473349 -25.56033,-2.291958 -7.90844,-1.721232 -15.68147,-4.4442 -22.70481,-8.355889 -20.29834,-11.22643 -43.0457,-19.862554 -67.18795,-24.575458 -21.8206,-4.202139 -44.27185,-5.153094 -66.24084,-3.199167 -22.0618,2.046741 -43.40379,6.63824 -63.64834,12.825475 -20.24456,6.187235 -39.39012,13.955175 -57.16449,22.306205 -6.54016,3.048763 -13.4855,5.100223 -20.40858,6.181693 -7.04772,1.127323 -14.32812,1.220655 -21.50391,0.630733 -8.05207,-0.612559 -15.9707,-2.260134 -23.62892,-4.472757 -7.65822,-2.212623 -15.05588,-4.989381 -22.0918,-7.958723 -1e-5,-4e-6 -2e-5,-9e-6 -3e-5,-1.3e-5 C 118.56798,70.028238 110.65591,65.975002 103.3941,61.914774 96.132281,57.854545 89.520824,53.786959 83.589956,49.992712 78.167073,46.516798 73.318992,43.228269 69.071052,40.30229 c -4.24794,-2.92598 -7.89473,-5.490528 -10.887015,-7.573904 -5.984569,-4.166753 -9.347142,-6.389067 -9.55834,-6.112546 -0.211198,0.27652 2.793169,2.964578 8.492973,7.537218 2.849903,2.286321 6.373113,5.039104 10.520596,8.143921 4.147482,3.104816 8.918287,6.562819 14.293144,10.205208 5.874023,3.97313 12.461574,8.211656 19.74076,12.43859 7.27918,4.226935 15.25001,8.442651 23.91246,12.265425 1e-5,5e-6 3e-5,10e-6 4e-5,1.4e-5 7.12199,3.107507 14.65347,6.012353 22.50325,8.339735 7.84978,2.327382 16.01776,4.076365 24.38431,4.774349 7.46722,0.659696 15.08925,0.59146 22.53124,-0.56345 7.31653,-1.113995 14.65954,-3.259483 21.59494,-6.470295 17.6616,-8.243266 36.62906,-15.921047 56.63022,-22.032608 20.00117,-6.111561 41.03485,-10.641847 62.72887,-12.636076 21.58972,-1.915803 43.62603,-0.987832 65.00013,3.139783 23.64633,4.618487 45.95233,13.107379 65.85169,24.148398 7.44447,4.157692 15.62237,7.054521 23.92193,8.885103 8.71176,1.929259 17.71719,2.601623 26.60504,2.507443 10.0442,-0.08635 19.85646,-1.278405 29.26055,-3.072679 9.40409,-1.794274 18.39981,-4.189554 26.84984,-6.789337 9.8446,-3.066617 18.85974,-6.463551 26.97141,-9.856961 8.11167,-3.39341 15.32063,-6.782924 21.57148,-9.891208 7.08736,-3.532297 12.83486,-6.662345 17.24524,-9.154806 3.61143,-2.064328 6.0973,-3.491379 7.73846,-4.429734 1.64117,-0.938355 2.46259,-1.363016 2.57506,-1.212178 0.11247,0.150838 -0.50646,0.854326 -1.98645,2.064826 -1.47999,1.2105 -3.8475,2.904199 -7.34103,5.198985 -4.27473,2.791624 -9.93349,6.199823 -16.96364,9.98173 -6.1996,3.328833 -13.39219,6.92296 -21.5244,10.505619 -8.13221,3.582658 -17.20485,7.153414 -27.14461,10.378025 -8.52936,2.740694 -17.64848,5.26116 -27.22911,7.161631 -9.58063,1.90047 -19.62262,3.179693 -29.95591,3.331779 -9.15424,0.148956 -18.48551,-0.515759 -27.58734,-2.492497 -8.68038,-1.879299 -17.26385,-4.901129 -25.13467,-9.26817 -19.54348,-10.802205 -41.41831,-19.113982 -64.5725,-23.625079 -20.93099,-4.041333 -42.55104,-4.947596 -63.76148,-3.069733 -21.32622,1.941902 -42.05218,6.413096 -61.80308,12.467133 -19.75091,6.054037 -38.52514,13.675897 -56.0403,21.872259 -7.32867,3.411206 -15.07323,5.699431 -22.8003,6.904222 -7.85327,1.241234 -15.84451,1.353387 -23.64412,0.700165 -8.72549,-0.699361 -17.20294,-2.452958 -25.32037,-4.785952 -8.11744,-2.332994 -15.87475,-5.244459 -23.18817,-8.357399 -1e-5,-4e-6 -2e-5,-9e-6 -3e-5,-1.3e-5 -8.89943,-3.820273 -17.0855,-8.012175 -24.565943,-12.193238 -7.480439,-4.181062 -14.25523,-8.351669 -20.309893,-12.233672 -5.549449,-3.562266 -10.488501,-6.91391 -14.803758,-9.887297 -4.315258,-2.973387 -8.005794,-5.569685 -11.028319,-7.67549 -6.045048,-4.21161 -9.418846,-6.444528 -9.630044,-6.168007 -0.211198,0.27652 2.804393,2.975182 8.564677,7.59268 2.880142,2.308749 6.447099,5.093282 10.661899,8.245506 4.214801,3.152224 9.076577,6.673343 14.577998,10.402083 5.997819,4.060886 12.748703,8.402433 20.246511,12.750201 7.497812,4.347769 15.742642,8.702152 24.749762,12.683872 1e-5,4e-6 2e-5,9e-6 3e-5,1.4e-5 7.3995,3.251104 15.29063,6.290658 23.59962,8.738411 8.309,2.447752 17.0358,4.302758 26.07577,5.087543 8.09104,0.722997 16.42391,0.635939 24.67145,-0.632882 8.12052,-1.237315 16.26276,-3.619569 23.98665,-7.192824 17.4024,-8.088597 35.99853,-15.620299 55.50605,-21.598662 19.50752,-5.978363 39.92517,-10.388343 60.88359,-12.277733 20.83119,-1.83974 42.03628,-0.956461 62.52079,3.010348 22.65826,4.416679 44.09173,12.581225 63.23623,23.19802 8.29196,4.613043 17.2803,7.808734 26.3518,9.797383 9.50217,2.087389 19.17935,2.821904 28.63205,2.707982 10.65724,-0.117297 20.98001,-1.363795 30.80626,-3.23008 9.82625,-1.866285 19.15585,-4.351119 27.86832,-7.051253 10.15698,-3.168515 19.44059,-6.667522 27.78252,-10.158692 8.34193,-3.49117 15.743,-6.974114 22.15351,-10.167014 7.2716,-3.626107 13.2088,-6.866137 17.77819,-9.454293 3.69198,-2.103396 6.37483,-3.6657 8.17087,-4.712404 1.79603,-1.046704 2.72805,-1.551124 2.84052,-1.400286 0.11247,0.150839 -0.61706,0.934086 -2.25192,2.252935 -1.63486,1.318849 -4.19935,3.1478 -7.77343,5.481654 -4.43375,2.887319 -10.28221,6.405501 -17.4966,10.281217 -6.35926,3.413449 -13.74394,7.101006 -22.10641,10.781425 -8.36248,3.680419 -17.70358,7.353247 -27.95573,10.679756 -8.7918,2.841046 -18.2448,5.451066 -28.24759,7.423548 -10.00279,1.972481 -20.5553,3.306153 -31.50163,3.489183 -9.71908,0.16869 -19.7221,-0.558171 -29.61434,-2.69304 -9.45232,-2.037365 -18.84623,-5.358058 -27.56453,-10.18045 -18.78863,-10.37798 -39.79093,-18.365411 -61.95705,-22.6747 -20.0414,-3.880527 -40.83023,-4.742098 -61.28214,-2.940299 -20.59062,1.837063 -40.70055,6.187951 -59.95781,12.108791 -19.25726,5.920839 -37.66016,13.396619 -54.91612,21.438312 -8.11717,3.77365 -16.66095,6.298636 -25.19201,7.626756 -8.65883,1.35514 -17.36091,1.48611 -25.78434,0.76959 -9.3989,-0.78616 -18.43518,-2.64578 -27.01182,-5.099144 -8.57665,-2.453365 -16.69361,-5.499538 -24.28453,-8.756075 -1e-5,-4e-6 -2e-5,-9e-6 -3e-5,-1.4e-5 C 110.73681,86.04967 102.27672,81.7191 94.577658,77.417204 86.878594,73.115307 79.94047,68.84168 73.762011,64.871922 68.085997,61.223303 63.055974,57.808544 58.673398,54.787749 54.290822,51.766955 50.556541,49.138907 47.503777,47.010673 c -6.105529,-4.256467 -9.490551,-6.499988 -9.701749,-6.223468 -0.211198,0.27652 2.815618,2.985785 8.636382,7.648141 2.910382,2.331178 6.521083,5.14746 10.803202,8.347092 4.282119,3.199631 9.234865,6.783866 14.862852,10.598959 6.121614,4.148641 13.035832,8.593208 20.752265,13.06181 7.716431,4.468603 16.235271,8.961652 25.587061,13.102318 10e-6,5e-6 2e-5,1e-5 3e-5,1.4e-5 7.67701,3.394703 15.92778,6.568961 24.69599,9.137091 8.7682,2.56812 18.05384,4.52915 27.76722,5.40073 8.71486,0.7863 17.75856,0.68042 26.81166,-0.70231 8.92451,-1.36064 17.86597,-3.97965 26.37837,-7.915354 17.14319,-7.933928 35.36798,-15.31955 54.38186,-21.164715 19.01387,-5.845165 38.81549,-10.134839 59.03832,-11.91939 20.07265,-1.763676 40.44654,-0.925089 60.04144,2.880913 21.6702,4.214872 42.23114,12.055071 60.62079,22.247643 9.13943,5.068393 18.93822,8.562943 28.78165,10.709663 10.29258,2.24552 20.64151,3.04218 30.65906,2.90852 11.27028,-0.14824 22.10356,-1.44918 32.35197,-3.38748 10.24841,-1.938297 19.9119,-4.512686 28.88681,-7.313169 10.46937,-3.270415 20.02144,-6.871493 28.59363,-10.460424 8.57219,-3.588931 16.16537,-7.165304 22.73553,-10.44282 7.45584,-3.719917 13.58275,-7.06993 18.31115,-9.75378 3.77253,-2.142464 6.65237,-3.840021 8.60327,-4.995074 1.9509,-1.155053 2.99351,-1.739232 3.10598,-1.588394 0.11247,0.150838 -0.72765,1.013844 -2.51738,2.441042 -1.78972,1.427199 -4.5512,3.391402 -8.20582,5.764325 -4.59277,2.983013 -10.63093,6.611177 -18.02956,10.580704 -6.51892,3.498065 -14.09571,7.279051 -22.68844,11.057231 -8.59273,3.778179 -18.20231,7.553078 -28.76684,10.981487 -9.05425,2.941392 -18.84113,5.640972 -29.26608,7.685462 -10.42495,2.04449 -21.48797,3.43261 -33.04734,3.64658 -10.28393,0.18844 -20.9587,-0.60057 -31.64134,-2.89357 -10.22426,-2.19544 -20.42862,-5.81499 -29.9944,-11.092734 -18.03377,-9.953756 -38.16354,-17.616839 -59.34159,-21.724322 -19.15181,-3.71972 -39.10943,-4.5366 -58.8028,-2.810864 -19.85503,1.732224 -39.34892,5.962806 -58.11254,11.750448 -18.76361,5.787642 -36.79518,13.117341 -53.79193,21.004362 -8.90568,4.1361 -18.24868,6.89785 -27.58373,8.34928 -9.46438,1.46906 -18.8773,1.61886 -27.92455,0.83903 -10.07232,-0.87296 -19.66743,-2.8386 -28.70328,-5.41234 -9.03586,-2.57373 -17.51246,-5.75461 -25.38089,-9.154747 -1e-5,-5e-6 -2e-5,-10e-6 -4e-5,-1.5e-5 C 106.82122,94.060385 98.087127,89.591149 90.169439,85.168419 82.25175,80.745688 75.150293,76.36904 68.848038,72.311526 63.045459,68.576556 57.924466,65.09868 53.474572,62.030478 49.024678,58.962276 45.246651,56.302479 42.163647,54.151816 c -6.166009,-4.301324 -9.562255,-6.555449 -9.773453,-6.278929 -0.211198,0.276521 2.826842,2.996389 8.708086,7.703602 2.940622,2.353607 6.595069,5.201639 10.944505,8.448678 4.349437,3.247039 9.393155,6.894389 15.147707,10.795834 6.245409,4.236397 13.322961,8.783985 21.258018,13.373421 7.935057,4.589436 16.7279,9.221153 26.42436,13.520768 10e-6,0 2e-5,10e-6 3e-5,10e-6 7.95451,3.5383 16.56493,6.84727 25.79235,9.53576 9.22741,2.6885 19.07188,4.75555 29.45868,5.71393 9.33868,0.8496 19.09322,0.7249 28.95187,-0.77174 9.7285,-1.48396 19.46918,-4.33974 28.77009,-8.63788 16.88398,-7.779263 34.73744,-15.018805 53.25767,-20.730772 18.52023,-5.711968 37.70582,-9.881336 57.19305,-11.561048 19.31411,-1.687613 38.85679,-0.893717 57.5621,2.751479 20.68213,4.013065 40.37053,11.528916 58.00533,21.297264 9.98692,5.523747 20.59614,9.317157 31.21152,11.621947 11.08299,2.40364 22.10367,3.26246 32.68606,3.10906 11.88332,-0.17919 23.22711,-1.53458 33.89768,-3.54489 10.67058,-2.0103 20.66795,-4.67425 29.9053,-7.57508 10.78175,-3.372315 20.6023,-7.075464 29.40474,-10.762155 8.80245,-3.686692 16.58774,-7.356494 23.31755,-10.718626 7.64008,-3.813728 13.95669,-7.273722 18.84411,-10.053268 3.85308,-2.181532 6.9299,-4.014341 9.03567,-5.277743 2.10577,-1.263403 3.25897,-1.927341 3.37144,-1.776502 0.11247,0.150838 -0.83824,1.093603 -2.78284,2.62915 -1.94459,1.535548 -4.90305,3.635004 -8.63822,6.046994 -4.75178,3.078709 -10.97965,6.816855 -18.56252,10.880192 -6.67857,3.582681 -14.44747,7.457096 -23.27046,11.333036 -8.82299,3.875941 -18.70103,7.752912 -29.57795,11.283222 -9.31669,3.04174 -19.43745,5.83087 -30.28457,7.94738 -10.84711,2.1165 -22.42064,3.55906 -34.59304,3.80398 -10.84878,0.20818 -22.1953,-0.64299 -33.66836,-3.09412 -10.9962,-2.3535 -22.011,-6.27191 -32.42426,-12.00501 -17.27892,-9.529529 -36.53615,-16.868266 -56.72613,-20.77394 -18.26222,-3.558915 -37.38863,-4.331103 -56.32346,-2.68143 -19.11943,1.627385 -37.99729,5.737661 -56.26726,11.392105 -18.26998,5.654444 -35.93022,12.838065 -52.66775,20.570415 -9.69419,4.49854 -19.83641,7.49706 -29.97545,9.07181 -10.26994,1.58297 -20.39369,1.75159 -30.06476,0.90846 -10.74573,-0.95976 -20.89967,-3.03142 -30.39474,-5.72553 -9.49507,-2.69411 -18.33132,-6.00969 -26.47725,-9.55343 -1e-5,0 -3e-5,-10e-6 -4e-5,-10e-6 C 102.90563,102.0711 93.897532,97.463198 85.761219,92.919634 77.624907,88.376069 70.360116,83.896401 63.934065,79.751131 58.004921,75.929808 52.792957,72.388818 48.275745,69.273208 43.758532,66.157599 39.936761,63.466051 36.823517,61.29296 c -6.226489,-4.346181 -9.63396,-6.61091 -9.845158,-6.33439 -0.211198,0.276521 2.838067,3.006993 8.779791,7.759063 2.970862,2.376035 6.669053,5.255818 11.085808,8.550264 4.416755,3.294446 9.551443,7.004912 15.432561,10.99271 6.369205,4.324152 13.61009,8.97476 21.763772,13.685031 8.153681,4.710272 17.220529,9.480652 27.261649,13.939212 2e-5,0 3e-5,1e-5 4e-5,1e-5 8.23201,3.6819 17.20208,7.12558 26.88871,9.93444 9.68663,2.80887 20.08992,4.98194 31.15013,6.02713 9.96251,0.9129 20.42788,0.76937 31.09209,-0.84118 10.53249,-1.60728 21.07239,-4.69983 31.1618,-9.36041 16.62478,-7.62459 34.10691,-14.71805 52.13349,-20.296825 18.02659,-5.57877 36.59614,-9.627832 55.34778,-11.202705 18.55557,-1.611549 37.26704,-0.862345 55.08276,2.622045 19.69406,3.811257 38.50993,11.002762 55.38987,20.346885 10.8344,5.9791 22.25407,10.07137 33.64139,12.53422 11.87339,2.56178 23.56583,3.48275 34.71306,3.3096 12.49636,-0.21012 24.35066,-1.61996 35.4434,-3.70228 11.09273,-2.08232 21.42398,-4.83582 30.92378,-7.837 11.09414,-3.47421 21.18315,-7.27944 30.21586,-11.06389 9.0327,-3.784449 17.0101,-7.547681 23.89956,-10.994429 7.82433,-3.907537 14.33064,-7.477514 19.37707,-10.352755 3.93364,-2.2206 7.20743,-4.188661 9.46807,-5.560413 2.26064,-1.371751 3.52444,-2.115448 3.63691,-1.96461 0.11247,0.150839 -0.94884,1.173362 -3.0483,2.817259 -2.09947,1.643896 -5.2549,3.878605 -9.07063,6.329663 -4.91079,3.174403 -11.32837,7.022532 -19.09548,11.179679 -6.83822,3.667297 -14.79923,7.635142 -23.85248,11.608846 -9.05324,3.9737 -19.19976,7.95274 -30.38906,11.58495 -9.57913,3.14209 -20.03378,6.02078 -31.30305,8.20929 -11.26928,2.18852 -23.35332,3.68553 -36.13876,3.96139 -11.41362,0.22792 -23.43189,-0.6854 -35.69536,-3.29466 -11.76814,-2.51157 -23.59338,-6.72885 -34.85413,-12.91729 C 430.8964,101.8565 412.5117,94.842112 393.30979,91.138245 375.93716,87.740137 357.64196,87.01264 339.46567,88.58625 321.08183,90.108796 302.82,94.098766 285.04368,99.620012 c -17.77633,5.521248 -35.06524,12.558788 -51.54357,20.136468 -10.48268,4.86099 -21.42413,8.09627 -32.36716,9.79434 -11.07549,1.69688 -21.91008,1.88432 -32.20497,0.9779 -11.41915,-1.04657 -22.13192,-3.22426 -32.0862,-6.03873 -9.95428,-2.81448 -19.15017,-6.26477 -27.57361,-9.9521 -2e-5,-1e-5 -3e-5,-1e-5 -4e-5,-2e-5 C 98.99004,110.08182 89.707937,105.33525 81.353,100.67085 72.998063,96.00645 65.569938,91.423761 59.020093,87.190736 52.964383,83.283061 47.661448,79.678955 43.076918,76.515938 38.492387,73.352921 34.626871,70.629623 31.483387,68.434104 c -6.286969,-4.391039 -9.705664,-6.666372 -9.916862,-6.389851 -0.211198,0.27652 2.849291,3.017596 8.851495,7.814523 3.001102,2.398464 6.743038,5.309997 11.227111,8.65185 4.484073,3.341854 9.709732,7.115436 15.717415,11.189585 6.493001,4.411908 13.89722,9.165537 22.269525,13.996639 8.372306,4.83111 17.713164,9.74016 28.098949,14.35766 2e-5,0 3e-5,1e-5 4e-5,1e-5 8.50952,3.8255 17.83923,7.40388 27.98507,10.33312 10.14584,2.92923 21.10796,5.20833 32.84159,6.34032 10.58632,0.9762 21.76254,0.81385 33.23229,-0.91061 11.33649,-1.7306 22.67561,-5.05991 33.55353,-10.08294 16.36557,-7.46992 33.47637,-14.41731 51.00931,-19.86288 17.53294,-5.44557 35.48646,-9.374326 53.5025,-10.844361 17.79704,-1.535486 35.67729,-0.830973 52.60342,2.49261 18.70599,3.60945 36.64933,10.476611 52.77441,19.396511 11.68188,6.43444 23.912,10.82558 36.07125,13.4465 12.66381,2.71991 25.02799,3.70303 36.74008,3.51014 13.10939,-0.24107 25.4742,-1.70536 36.9891,-3.85969 11.5149,-2.15432 22.18003,-4.99738 31.94227,-8.09891 11.40652,-3.57611 21.76401,-7.48341 31.02697,-11.36562 9.26296,-3.88221 17.43246,-7.73887 24.48159,-11.270237 8.00856,-4.001347 14.70458,-7.681307 19.91002,-10.652242 4.01419,-2.259668 7.48496,-4.362982 9.90047,-5.843083 2.41551,-1.480101 3.7899,-2.303556 3.90237,-2.152718 0.11247,0.150838 -1.05943,1.25312 -3.31376,3.005366 -2.25434,1.752246 -5.60675,4.122207 -9.50303,6.612334 -5.06981,3.270098 -11.67708,7.228209 -19.62844,11.479166 -6.99787,3.751914 -15.15099,7.813184 -24.43449,11.884644 -9.28351,4.07147 -19.69849,8.15258 -31.20018,11.88669 -9.84157,3.24244 -20.6301,6.21068 -32.32154,8.47121 -11.69144,2.26052 -24.28598,3.81198 -37.68447,4.11878 -11.97847,0.24767 -24.66849,-0.7278 -37.72236,-3.49519 -12.54008,-2.66964 -25.17577,-7.18578 -37.284,-13.82957 -15.7692,-8.68109 -33.28137,-15.37113 -51.49521,-18.87319 -16.48304,-3.237302 -33.94702,-3.920107 -51.36478,-2.422561 -17.64824,1.417707 -35.29404,5.287371 -52.57672,10.675421 -17.28268,5.38805 -34.20026,12.27951 -50.41938,19.70252 -11.27119,5.22343 -23.01186,8.69548 -34.75888,10.51687 -11.88105,1.81079 -23.42648,2.01705 -34.34519,1.04733 -12.09256,-1.13337 -23.36416,-3.41708 -33.77765,-6.35193 -10.41348,-2.93484 -19.96903,-6.51985 -28.66998,-10.35077 -10e-6,-1e-5 -2e-5,-1e-5 -3e-5,-2e-5 C 95.074452,118.09253 85.518342,113.2073 76.944781,108.42206 68.37122,103.63683 60.779761,98.951121 54.10612,94.630341 47.923845,90.636313 42.529939,86.969091 37.878091,83.758667 c -4.651848,-3.210424 -8.56111,-5.965472 -11.734834,-8.18342 -6.347448,-4.435896 -9.777368,-6.721832 -9.988566,-6.445312 -0.211198,0.27652 2.860515,3.0282 8.923199,7.869985 3.031342,2.420892 6.817024,5.364175 11.368415,8.753436 4.551391,3.389261 9.868021,7.225958 16.002269,11.38646 6.616796,4.499664 14.184348,9.356314 22.775278,14.308254 8.59093,4.95194 18.205795,9.99965 28.936248,14.7761 1e-5,0 3e-5,1e-5 4e-5,2e-5 8.78702,3.96909 18.47638,7.68218 29.08143,10.73179 10.60505,3.0496 22.126,5.43472 34.53305,6.65351 11.21014,1.0395 23.09719,0.85833 35.3725,-0.98004 12.14048,-1.85392 24.27882,-5.42 35.94525,-10.80547 16.10635,-7.31526 32.84582,-14.11656 49.88512,-19.42893 17.03929,-5.31238 34.37678,-9.12083 51.65723,-10.48602 17.0385,-1.45942 34.08754,-0.7996 50.12408,2.36317 17.71792,3.40765 34.78873,9.95046 50.15896,18.44613 12.52936,6.8898 25.56991,11.5798 38.50111,14.35879 13.45422,2.87804 26.49015,3.9233 38.76708,3.71068 13.72244,-0.27202 26.59775,-1.79075 38.53481,-4.01709 11.93706,-2.22634 22.93608,-5.15895 32.96076,-8.36083 11.7189,-3.67801 22.34486,-7.68738 31.83808,-11.66735 9.49322,-3.97997 17.85483,-7.93006 25.06361,-11.54605 8.19281,-4.09515 15.07853,-7.885095 20.44298,-10.951724 4.09474,-2.298736 7.7625,-4.537302 10.33287,-6.125752 2.57038,-1.588451 4.05536,-2.491665 4.16783,-2.340827 0.11247,0.150839 -1.17002,1.33288 -3.57922,3.193475 -2.4092,1.860595 -5.9586,4.365808 -9.93543,6.895003 -5.22882,3.365793 -12.0258,7.433885 -20.16139,11.778655 -7.15754,3.83653 -15.50276,7.99123 -25.01652,12.16045 -9.51377,4.16922 -20.19722,8.35241 -32.01129,12.18842 -10.10401,3.34279 -21.22643,6.40059 -33.34003,8.73312 -12.1136,2.33254 -25.21865,3.93844 -39.23018,4.27619 -12.54331,0.2674 -25.90508,-0.77022 -39.74937,-3.69573 -13.31202,-2.82771 -26.75814,-7.64271 -39.71385,-14.74186 -15.01435,-8.25686 -31.65399,-14.62255 -48.87976,-17.9228 -15.59345,-3.0765 -32.22622,-3.71461 -48.88544,-2.29313 -16.91265,1.31287 -33.94241,5.06223 -50.73145,10.31708 -16.78903,5.25485 -33.33528,12.00023 -49.2952,19.26858 -12.05969,5.58587 -24.59958,9.29468 -37.15059,11.23939 -12.6866,1.9247 -24.94287,2.14979 -36.4854,1.11676 -12.76598,-1.22016 -24.5964,-3.6099 -35.4691,-6.66512 -10.8727,-3.05522 -20.7879,-6.77493 -29.76635,-10.74945 -1e-5,-1e-5 -2e-5,-1e-5 -4e-5,-2e-5 -10.967416,-4.77394 -20.797533,-9.79785 -29.589719,-14.70391 -8.792185,-4.90607 -16.546977,-9.6948 -23.344414,-14.10333 -6.30884,-4.080383 -11.793717,-7.810721 -16.512883,-11.068553 -4.719167,-3.257832 -8.672173,-6.044629 -11.876138,-8.285006 -6.407928,-4.480754 -9.849072,-6.777293 -10.06027,-6.500773 -0.211198,0.27652 2.86336,3.049495 8.973044,7.954678 3.054842,2.452591 6.876278,5.438872 11.486476,8.888623 4.610198,3.449751 10.00876,7.364481 16.261111,11.628171 6.731193,4.60563 14.453225,9.58558 23.25634,14.68065 8.803115,5.09508 18.687977,10.30579 29.763823,15.26751 2e-5,10e-6 3e-5,10e-6 4e-5,2e-5 9.06497,4.13468 19.1186,8.00526 30.19409,11.19802 11.07549,3.19277 23.17314,5.7067 36.28054,7.03416 11.85897,1.12181 24.48906,0.93718 37.61063,-1.00564 12.98508,-1.96844 25.96695,-5.7693 38.46868,-11.52438 15.84431,-7.12928 32.1996,-13.75592 48.7205,-18.91225 16.52091,-5.15633 33.20559,-8.82739 49.70465,-10.07946 16.23272,-1.37688 32.3973,-0.77089 47.49369,2.20591 16.67368,3.17655 32.83107,9.34737 47.42987,17.35925 13.43015,7.34825 27.32801,12.32545 41.06936,15.23921 14.2839,3.01153 28.01836,4.08414 40.87577,3.80982 14.35243,-0.35037 27.74246,-1.97744 40.09505,-4.33517 12.35259,-2.35772 23.66807,-5.44471 33.92979,-8.8162 12.00156,-3.86089 22.85459,-8.05991 32.52564,-12.23194 9.67106,-4.17203 18.16134,-8.31654 25.45655,-12.12564 8.29369,-4.3123 15.26844,-8.34264 20.67648,-11.64523 4.08972,-2.454732 7.84086,-4.937358 10.44287,-6.749262 2.602,-1.811904 4.06624,-2.917481 4.06624,-2.917481"
       style="fill:none;stroke:#f90000;stroke-width:0.7086615;stroke-linecap:square;stroke-linejoin:round;stroke-miterlimit:4;stroke-opacity:1;stroke-dashoffset:0"
       inkscape:connector-curvature="0" />
  </g>
</svg>
